{
   "accessors" : [
      {
         "bufferView" : 0,
         "componentType" : 5123,
         "count" : 1674,
         "max" : [ 1673 ],
         "min" : [ 0 ],
         "name" : "buffer-0-accessor-indices-buffer-0-mesh-0",
         "type" : "SCALAR"
      },
      {
         "bufferView" : 2,
         "componentType" : 5126,
         "count" : 1674,
         "max" : [ 86.61471557617188, 505.8993835449219, 323.2049560546875 ],
         "min" : [ -86.61471557617188, -0.0003359999973326921, -323.2049560546875 ],
         "name" : "buffer-0-accessor-position-buffer-0-mesh-0",
         "type" : "VEC3"
      },
      {
         "bufferView" : 2,
         "byteOffset" : 20088,
         "componentType" : 5126,
         "count" : 1674,
         "max" : [ 0.9999999403953552, 0.9765372276306152, 0.9999999403953552 ],
         "min" : [ -1, -1, -0.9955136775970459 ],
         "name" : "buffer-0-accessor-normal-buffer-0-mesh-0",
         "type" : "VEC3"
      },
      {
         "bufferView" : 1,
         "componentType" : 5126,
         "count" : 1674,
         "max" : [ 0.9764000177383423, 0 ],
         "min" : [ 0, -0.4254719913005829 ],
         "name" : "buffer-0-accessor-texcoord-buffer-0-mesh-0",
         "type" : "VEC2"
      },
      {
         "bufferView" : 3,
         "componentType" : 5126,
         "count" : 0,
         "max" : [ 0, 0, 0, 0 ],
         "min" : [ 0, 0, 0, 0 ],
         "name" : "buffer-0-accessor-color-buffer-0-mesh-0",
         "type" : "VEC4"
      }
   ],
   "asset" : {
      "generator" : "Obj2GltfConverter",
      "version" : "2.0"
   },
   "bufferViews" : [
      {
         "buffer" : 0,
         "byteLength" : 3348,
         "byteStride" : 0,
         "name" : "buffer-0-bufferview-ushort",
         "target" : 34963
      },
      {
         "buffer" : 0,
         "byteLength" : 13392,
         "byteOffset" : 3352,
         "byteStride" : 8,
         "name" : "buffer-0-bufferview-vec2",
         "target" : 34962
      },
      {
         "buffer" : 0,
         "byteLength" : 40176,
         "byteOffset" : 16752,
         "byteStride" : 12,
         "name" : "buffer-0-bufferview-vec3",
         "target" : 34962
      },
      {
         "buffer" : 0,
         "byteLength" : 1,
         "name" : "buffer-0-bufferview-vec4"
      }
   ],
   "buffers" : [
      {
         "byteLength" : 56928,
         "name" : "buffer-0",
         "uri" : "dog.bin"
      }
   ],
   "images" : [
      {
         "mimeType" : "image/png",
         "name" : "Mat-image",
         "uri" : "dog_texture.png"
      }
   ],
   "materials" : [
      {
         "doubleSided" : true,
         "name" : "Mat",
         "pbrMetallicRoughness" : {
            "baseColorTexture" : {
               "index" : 0
            },
            "metallicFactor" : 0,
            "roughnessFactor" : 0.9699476628648295
         }
      }
   ],
   "meshes" : [
      {
         "name" : "buffer-0-mesh-0",
         "primitives" : [
            {
               "attributes" : {
                  "NORMAL" : 2,
                  "POSITION" : 1,
                  "TEXCOORD_0" : 3
               },
               "indices" : 0,
               "material" : 0
            }
         ]
      }
   ],
   "nodes" : [
      {
         "mesh" : 0,
         "name" : "node-0"
      }
   ],
   "samplers" : [
      {
         "name" : "Mat-sampler",
         "wrapS" : 10497,
         "wrapT" : 10497
      }
   ],
   "scenes" : [
      {
         "name" : "scene-0",
         "nodes" : [ 0 ]
      }
   ],
   "textures" : [
      {
         "name" : "Mat-texture",
         "sampler" : 0,
         "source" : 0
      }
   ]
}
